<svg xmlns="http://www.w3.org/2000/svg" width="1024" height="1024" viewBox="0 0 1024 1024" fill="none">
  <defs>
    <linearGradient id="bg" x1="152" y1="108" x2="856" y2="916" gradientUnits="userSpaceOnUse">
      <stop stop-color="#08111C" />
      <stop offset="0.52" stop-color="#0B1726" />
      <stop offset="1" stop-color="#040A13" />
    </linearGradient>
    <radialGradient id="halo" cx="0" cy="0" r="1" gradientUnits="userSpaceOnUse" gradientTransform="translate(512 412) rotate(90) scale(374)">
      <stop stop-color="#43C8FF" stop-opacity="0.34" />
      <stop offset="0.46" stop-color="#2E9FFF" stop-opacity="0.16" />
      <stop offset="1" stop-color="#2E9FFF" stop-opacity="0" />
    </radialGradient>
    <linearGradient id="beam" x1="288" y1="790" x2="700" y2="240" gradientUnits="userSpaceOnUse">
      <stop stop-color="#F4FBFF" />
      <stop offset="0.3" stop-color="#BAF1FF" />
      <stop offset="1" stop-color="#5FD5FF" />
    </linearGradient>
    <linearGradient id="beamSoft" x1="734" y1="250" x2="474" y2="792" gradientUnits="userSpaceOnUse">
      <stop stop-color="#5FD5FF" />
      <stop offset="1" stop-color="#C4F4FF" />
    </linearGradient>
    <linearGradient id="accent" x1="604" y1="254" x2="810" y2="432" gradientUnits="userSpaceOnUse">
      <stop stop-color="#FFE5A8" />
      <stop offset="1" stop-color="#FFB85C" />
    </linearGradient>
    <filter id="shadow" x="170" y="149" width="678" height="739" filterUnits="userSpaceOnUse" color-interpolation-filters="sRGB">
      <feFlood flood-opacity="0" result="BackgroundImageFix" />
      <feColorMatrix in="SourceAlpha" values="0 0 0 0 0 0 0 0 0 0 0 0 0 0 0 0 0 0 127 0" result="hardAlpha" />
      <feOffset dy="26" />
      <feGaussianBlur stdDeviation="36" />
      <feColorMatrix values="0 0 0 0 0.0196078 0 0 0 0 0.0470588 0 0 0 0 0.0862745 0 0 0 0.42 0" />
      <feBlend in2="BackgroundImageFix" result="effect1_dropShadow_1_1" />
      <feBlend in="SourceGraphic" in2="effect1_dropShadow_1_1" result="shape" />
    </filter>
  </defs>

  <rect x="64" y="64" width="896" height="896" rx="224" fill="url(#bg)" />
  <rect x="90" y="90" width="844" height="844" rx="198" stroke="#FFFFFF" stroke-opacity="0.08" stroke-width="2" />
  <circle cx="512" cy="430" r="320" fill="url(#halo)" />

  <g filter="url(#shadow)">
    <path
      d="M319 792L466 252C475 228 491 216 512 216C533 216 549 228 558 252L705 792H625L584 664H440L399 792H319Z"
      fill="url(#beam)"
    />
    <path
      d="M471 581H553L512 444L471 581Z"
      fill="#07121E"
      fill-opacity="0.78"
    />
    <rect x="390" y="540" width="244" height="44" rx="22" fill="url(#beamSoft)" fill-opacity="0.98" />
  </g>

  <path
    d="M706 264C706 232 732 206 764 206C796 206 822 232 822 264C822 296 796 322 764 322C732 322 706 296 706 264Z"
    fill="url(#accent)"
  />
  <path
    d="M726 390C726 373 740 360 757 360C774 360 788 373 788 390C788 407 774 421 757 421C740 421 726 407 726 390Z"
    fill="#FFF4D6"
    fill-opacity="0.92"
  />
</svg>
